<svg width="697" height="1158" viewBox="0 0 697 1158" fill="none" xmlns="http://www.w3.org/2000/svg">
<path fill-rule="evenodd" clip-rule="evenodd" d="M250.5 222L251.5 231V232H242.5H229.5L215.5 244.5L206.5 257L195 289L190.5 302L186.5 305.5V314L220.5 361.5L223 375.5L215.5 391V402L223 414.5L220.5 422L215.5 432.5L211 446.5L202 462.5L195 468L190.5 482.5L198.5 532L225.5 561L228 573L288.5 630.5V648C293.167 663.5 302.7 695.6 303.5 700C304.3 704.4 310.167 714.833 313 719.5C312.333 721.5 311.4 727.9 313 737.5C314.6 747.1 322.667 754.167 326.5 756.5C346.5 770 387.7 797.8 392.5 801C397.3 804.2 403.5 833.667 406 848C406.667 850.333 405.5 855.3 395.5 856.5C385.5 857.7 356.333 889.333 343 905V926.5C341.167 930.5 338 939.4 340 943C342 946.6 348.167 947.5 351 947.5V959C348.167 958.667 341 958.2 335 959C329 959.8 320.167 967.667 316.5 971.5V990L288 1018L259 1047.5C244.333 1051.33 214.2 1059.2 211 1060C207.8 1060.8 188 1086.33 178.5 1099L160 1101.5L156 1105C140.333 1104 108.2 1101.9 105 1101.5C101 1101 41 1103 37 1105C33.8 1106.6 11.6667 1133 1 1146V1157.5L696 1157V341.5H685L586.5 312.5L539 299.5L519.5 296.5L506.5 292.5H489L478.5 285H454.5L411 268.5L360.5 253.5L338 247.5L310 239.5L303.119 235.63L301 228L299.5 216V203L296 196.5L294 192.5V184L298 180L296 150.5L301 145.5V130H317L322.5 122L324.5 114L334.5 107.5V80H322.5V47.5L312 40.5V29.5L309 26.5H283V10.5L278 4L272 1H264L260 4L253.5 10.5V37.5H240L234 34L228.5 29.5V23.5L231 20L240 10.5L242 7.5L240 4H235.5L211 26.5L207 32.5V37.5L220.5 47.5V52L235.5 65V114L233.5 119V138L235.5 142V189H244.5L245.5 203.5L246.5 209L248 216L250.5 222ZM287.113 235L286 223.5L283 205.5L278.5 196.5L275.5 187.5L274 181.5H269.5L263.5 185.5L261 187.5V196.5L263.5 203.5V234.571L265 235H287.113ZM281.5 29.5V37H292L294.5 38L297.5 39.5H307.5V30.5H296.5L293.5 29.5H281.5Z" fill="#151515"/>
<path d="M251.5 231H252V230.972L251.997 230.945L251.5 231ZM250.5 222L250.997 221.945L250.989 221.874L250.962 221.808L250.5 222ZM251.5 232V232.5H252V232H251.5ZM229.5 232V231.5H229.309L229.167 231.627L229.5 232ZM215.5 244.5L215.167 244.127L215.126 244.163L215.094 244.208L215.5 244.5ZM206.5 257L206.094 256.708L206.053 256.765L206.029 256.831L206.5 257ZM195 289L194.529 288.831L194.528 288.836L195 289ZM190.5 302L190.829 302.376L190.929 302.289L190.972 302.164L190.5 302ZM186.5 305.5L186.171 305.124L186 305.273V305.5H186.5ZM186.5 314H186V314.161L186.093 314.291L186.5 314ZM220.5 361.5L220.992 361.412L220.972 361.301L220.907 361.209L220.5 361.5ZM223 375.5L223.45 375.718L223.521 375.572L223.492 375.412L223 375.5ZM215.5 391L215.05 390.782L215 390.885V391H215.5ZM215.5 402H215V402.138L215.071 402.257L215.5 402ZM223 414.5L223.474 414.658L223.547 414.44L223.429 414.243L223 414.5ZM220.5 422L220.951 422.215L220.965 422.187L220.974 422.158L220.5 422ZM215.5 432.5L215.049 432.285L215.034 432.315L215.024 432.347L215.5 432.5ZM211 446.5L211.436 446.745L211.461 446.701L211.476 446.653L211 446.5ZM202 462.5L202.309 462.893L202.387 462.832L202.436 462.745L202 462.5ZM195 468L194.691 467.607L194.569 467.703L194.522 467.852L195 468ZM190.5 482.5L190.022 482.352L189.988 482.464L190.006 482.58L190.5 482.5ZM198.5 532L198.006 532.08L198.031 532.23L198.134 532.341L198.5 532ZM225.5 561L225.989 560.898L225.961 560.761L225.866 560.659L225.5 561ZM228 573L227.511 573.102L227.542 573.255L227.656 573.362L228 573ZM288.5 630.5H289V630.285L288.844 630.138L288.5 630.5ZM288.5 648H288V648.074L288.021 648.144L288.5 648ZM313 719.5L313.474 719.658L313.548 719.438L313.427 719.241L313 719.5ZM326.5 756.5L326.78 756.086L326.77 756.079L326.76 756.073L326.5 756.5ZM406 848L405.507 848.086L405.512 848.112L405.519 848.137L406 848ZM343 905L342.619 904.676L342.5 904.816V905H343ZM343 926.5L343.455 926.708L343.5 926.609V926.5H343ZM351 947.5H351.5V947H351V947.5ZM351 959L350.942 959.497L351.5 959.562V959H351ZM316.5 971.5L316.139 971.154L316 971.299V971.5H316.5ZM316.5 990L316.85 990.357L317 990.21V990H316.5ZM288 1018L287.65 1017.64L287.643 1017.65L288 1018ZM259 1047.5L259.126 1047.98L259.26 1047.95L259.357 1047.85L259 1047.5ZM211 1060L211.121 1060.49L211.121 1060.49L211 1060ZM178.5 1099L178.567 1099.5L178.774 1099.47L178.9 1099.3L178.5 1099ZM160 1101.5L159.933 1101L159.784 1101.02L159.671 1101.12L160 1101.5ZM156 1105L155.968 1105.5L156.174 1105.51L156.329 1105.38L156 1105ZM105 1101.5L105.062 1101L105.062 1101L105 1101.5ZM37 1105L37.2236 1105.45L37.2236 1105.45L37 1105ZM1 1146L0.613463 1145.68L0.5 1145.82V1146H1ZM1 1157.5H0.5V1158L1.00036 1158L1 1157.5ZM696 1157L696 1157.5L696.5 1157.5V1157H696ZM696 341.5H696.5V341H696V341.5ZM685 341.5L684.859 341.98L684.928 342H685V341.5ZM586.5 312.5L586.641 312.02L586.632 312.018L586.5 312.5ZM539 299.5L539.132 299.018L539.104 299.01L539.076 299.006L539 299.5ZM519.5 296.5L519.353 296.978L519.388 296.989L519.424 296.994L519.5 296.5ZM506.5 292.5L506.647 292.022L506.575 292H506.5V292.5ZM489 292.5L488.709 292.907L488.84 293H489V292.5ZM478.5 285L478.791 284.593L478.66 284.5H478.5V285ZM454.5 285L454.323 285.467L454.408 285.5H454.5V285ZM411 268.5L411.177 268.033L411.16 268.026L411.142 268.021L411 268.5ZM360.5 253.5L360.642 253.021L360.629 253.017L360.5 253.5ZM338 247.5L337.863 247.981L337.871 247.983L338 247.5ZM310 239.5L309.755 239.936L309.806 239.965L309.863 239.981L310 239.5ZM303.119 235.63L302.638 235.763L302.693 235.964L302.874 236.065L303.119 235.63ZM301 228L300.504 228.062L300.508 228.098L300.518 228.134L301 228ZM299.5 216H299V216.031L299.004 216.062L299.5 216ZM299.5 203H300V202.874L299.94 202.763L299.5 203ZM296 196.5L295.553 196.724L295.556 196.73L295.56 196.737L296 196.5ZM294 192.5H293.5V192.618L293.553 192.724L294 192.5ZM294 184L293.646 183.646L293.5 183.793V184H294ZM298 180L298.354 180.354L298.514 180.193L298.499 179.966L298 180ZM296 150.5L295.646 150.146L295.486 150.307L295.501 150.534L296 150.5ZM301 145.5L301.354 145.854L301.5 145.707V145.5H301ZM301 130V129.5H300.5V130H301ZM317 130V130.5H317.263L317.412 130.283L317 130ZM322.5 122L322.912 122.283L322.963 122.209L322.985 122.121L322.5 122ZM324.5 114L324.228 113.581L324.063 113.688L324.015 113.879L324.5 114ZM334.5 107.5L334.772 107.919L335 107.771V107.5H334.5ZM334.5 80H335V79.5H334.5V80ZM322.5 80H322V80.5H322.5V80ZM322.5 47.5H323V47.2324L322.777 47.084L322.5 47.5ZM312 40.5H311.5V40.7676L311.723 40.916L312 40.5ZM312 29.5H312.5V29.2929L312.354 29.1464L312 29.5ZM309 26.5L309.354 26.1464L309.207 26H309V26.5ZM283 26.5H282.5V27H283V26.5ZM283 10.5H283.5V10.3299L283.396 10.1951L283 10.5ZM278 4L278.396 3.69514L278.326 3.60414L278.224 3.55279L278 4ZM272 1L272.224 0.552786L272.118 0.5H272V1ZM264 1V0.5H263.833L263.7 0.6L264 1ZM260 4L259.7 3.6L259.672 3.62132L259.646 3.64645L260 4ZM253.5 10.5L253.146 10.1464L253 10.2929V10.5H253.5ZM253.5 37.5V38H254V37.5H253.5ZM240 37.5L239.748 37.9319L239.865 38H240V37.5ZM234 34L233.683 34.387L233.714 34.412L233.748 34.4319L234 34ZM228.5 29.5H228V29.7369L228.183 29.887L228.5 29.5ZM228.5 23.5L228.093 23.2094L228 23.3398V23.5H228.5ZM231 20L230.637 19.6561L230.613 19.6812L230.593 19.7094L231 20ZM240 10.5L240.363 10.8439L240.392 10.8129L240.416 10.7774L240 10.5ZM242 7.5L242.416 7.77735L242.587 7.52023L242.434 7.25193L242 7.5ZM240 4L240.434 3.75193L240.29 3.5H240V4ZM235.5 4V3.5H235.305L235.162 3.63174L235.5 4ZM211 26.5L210.662 26.1317L210.617 26.1725L210.584 26.2226L211 26.5ZM207 32.5L206.584 32.2226L206.5 32.3486V32.5H207ZM207 37.5H206.5V37.7519L206.702 37.9018L207 37.5ZM220.5 47.5H221V47.2481L220.798 47.0982L220.5 47.5ZM220.5 52H220V52.2283L220.173 52.3778L220.5 52ZM235.5 65H236V64.7717L235.827 64.6222L235.5 65ZM235.5 114L235.964 114.186L236 114.096V114H235.5ZM233.5 119L233.036 118.814L233 118.904V119H233.5ZM233.5 138H233V138.118L233.053 138.224L233.5 138ZM235.5 142H236V141.882L235.947 141.776L235.5 142ZM235.5 189H235V189.5H235.5V189ZM244.5 189L244.999 188.966L244.967 188.5H244.5V189ZM245.5 203.5L245.001 203.534L245.003 203.562L245.008 203.589L245.5 203.5ZM246.5 209L246.008 209.089L246.009 209.097L246.011 209.105L246.5 209ZM248 216L247.511 216.105L247.521 216.15L247.538 216.192L248 216ZM287.113 235V235.5H287.664L287.611 234.952L287.113 235ZM286 223.5L286.498 223.452L286.496 223.435L286.493 223.418L286 223.5ZM283 205.5L283.493 205.418L283.481 205.344L283.447 205.276L283 205.5ZM278.5 196.5L278.026 196.658L278.037 196.692L278.053 196.724L278.5 196.5ZM275.5 187.5L275.015 187.621L275.02 187.64L275.026 187.658L275.5 187.5ZM274 181.5L274.485 181.379L274.39 181H274V181.5ZM269.5 181.5V181H269.349L269.223 181.084L269.5 181.5ZM263.5 185.5L263.223 185.084L263.205 185.096L263.188 185.11L263.5 185.5ZM261 187.5L260.688 187.11L260.5 187.26V187.5H261ZM261 196.5H260.5V196.587L260.529 196.668L261 196.5ZM263.5 203.5H264V203.413L263.971 203.332L263.5 203.5ZM263.5 234.571H263V234.949L263.363 235.052L263.5 234.571ZM265 235L264.863 235.481L264.93 235.5H265V235ZM281.5 37H281V37.5H281.5V37ZM281.5 29.5V29H281V29.5H281.5ZM292 37L292.186 36.5358L292.096 36.5H292V37ZM294.5 38L294.724 37.5528L294.705 37.5435L294.686 37.5358L294.5 38ZM297.5 39.5L297.276 39.9472L297.382 40H297.5V39.5ZM307.5 39.5V40H308V39.5H307.5ZM307.5 30.5H308V30H307.5V30.5ZM296.5 30.5L296.342 30.9743L296.419 31H296.5V30.5ZM293.5 29.5L293.658 29.0257L293.581 29H293.5V29.5ZM251.997 230.945L250.997 221.945L250.003 222.055L251.003 231.055L251.997 230.945ZM252 232V231H251V232H252ZM251.5 231.5H242.5V232.5H251.5V231.5ZM242.5 231.5H229.5V232.5H242.5V231.5ZM229.167 231.627L215.167 244.127L215.833 244.873L229.833 232.373L229.167 231.627ZM215.094 244.208L206.094 256.708L206.906 257.292L215.906 244.792L215.094 244.208ZM206.029 256.831L194.529 288.831L195.471 289.169L206.971 257.169L206.029 256.831ZM194.528 288.836L190.028 301.836L190.972 302.164L195.472 289.164L194.528 288.836ZM190.171 301.624L186.171 305.124L186.829 305.876L190.829 302.376L190.171 301.624ZM186 305.5V314H187V305.5H186ZM186.093 314.291L220.093 361.791L220.907 361.209L186.907 313.709L186.093 314.291ZM220.008 361.588L222.508 375.588L223.492 375.412L220.992 361.412L220.008 361.588ZM222.55 375.282L215.05 390.782L215.95 391.218L223.45 375.718L222.55 375.282ZM215 391V402H216V391H215ZM215.071 402.257L222.571 414.757L223.429 414.243L215.929 401.743L215.071 402.257ZM222.526 414.342L220.026 421.842L220.974 422.158L223.474 414.658L222.526 414.342ZM220.049 421.785L215.049 432.285L215.951 432.715L220.951 422.215L220.049 421.785ZM215.024 432.347L210.524 446.347L211.476 446.653L215.976 432.653L215.024 432.347ZM210.564 446.255L201.564 462.255L202.436 462.745L211.436 446.745L210.564 446.255ZM201.691 462.107L194.691 467.607L195.309 468.393L202.309 462.893L201.691 462.107ZM194.522 467.852L190.022 482.352L190.978 482.648L195.478 468.148L194.522 467.852ZM190.006 482.58L198.006 532.08L198.994 531.92L190.994 482.42L190.006 482.58ZM198.134 532.341L225.134 561.341L225.866 560.659L198.866 531.659L198.134 532.341ZM225.011 561.102L227.511 573.102L228.489 572.898L225.989 560.898L225.011 561.102ZM227.656 573.362L288.156 630.862L288.844 630.138L228.344 572.638L227.656 573.362ZM288 630.5V648H289V630.5H288ZM288.021 648.144C290.354 655.893 293.904 667.792 296.97 678.303C300.042 688.834 302.614 697.923 303.008 700.089L303.992 699.911C303.586 697.677 300.991 688.516 297.93 678.022C294.863 667.508 291.312 655.607 288.979 647.856L288.021 648.144ZM303.008 700.089C303.424 702.374 305.128 706.148 307.043 709.878C308.97 713.633 311.151 717.418 312.573 719.759L313.427 719.241C312.016 716.915 309.847 713.151 307.932 709.422C306.006 705.669 304.376 702.026 303.992 699.911L303.008 700.089ZM312.526 719.342C311.825 721.443 310.898 727.931 312.507 737.582L313.493 737.418C311.902 727.869 312.841 721.557 313.474 719.658L312.526 719.342ZM312.507 737.582C313.326 742.496 315.795 746.741 318.527 750.044C321.259 753.345 324.276 755.732 326.24 756.927L326.76 756.073C324.89 754.935 321.958 752.621 319.298 749.406C316.638 746.192 314.274 742.104 313.493 737.418L312.507 737.582ZM326.22 756.914C346.219 770.414 387.421 798.215 392.223 801.416L392.777 800.584C387.979 797.385 346.781 769.586 326.78 756.086L326.22 756.914ZM392.223 801.416C392.718 801.746 393.292 802.467 393.919 803.593C394.536 804.703 395.172 806.148 395.815 807.854C397.101 811.266 398.399 815.678 399.628 820.45C402.086 829.991 404.259 840.928 405.507 848.086L406.493 847.914C405.241 840.739 403.064 829.775 400.597 820.2C399.364 815.414 398.055 810.963 396.751 807.502C396.099 805.772 395.443 804.277 394.793 803.107C394.151 801.954 393.482 801.054 392.777 800.584L392.223 801.416ZM405.519 848.137C405.808 849.149 405.715 850.797 404.372 852.348C403.025 853.903 400.37 855.412 395.44 856.004L395.56 856.996C400.63 856.388 403.559 854.814 405.128 853.002C406.701 851.186 406.859 849.185 406.481 847.863L405.519 848.137ZM395.44 856.004C394.092 856.165 392.473 856.83 390.673 857.851C388.864 858.878 386.831 860.289 384.646 861.986C380.276 865.383 375.26 869.954 370.15 874.968C359.928 884.998 349.292 896.835 342.619 904.676L343.381 905.324C350.041 897.498 360.656 885.685 370.85 875.682C375.948 870.679 380.933 866.138 385.26 862.776C387.424 861.095 389.415 859.715 391.167 858.721C392.928 857.721 394.408 857.135 395.56 856.996L395.44 856.004ZM342.5 905V926.5H343.5V905H342.5ZM342.545 926.292C341.619 928.313 340.357 931.569 339.577 934.782C339.187 936.388 338.913 938 338.867 939.45C338.822 940.889 338.999 942.227 339.563 943.243L340.437 942.757C340.001 941.973 339.824 940.848 339.867 939.481C339.91 938.125 340.168 936.587 340.548 935.018C341.31 931.881 342.548 928.687 343.455 926.708L342.545 926.292ZM339.563 943.243C340.657 945.212 342.851 946.389 345.037 947.077C347.24 947.77 349.542 948 351 948V947C349.625 947 347.426 946.78 345.338 946.123C343.232 945.461 341.343 944.388 340.437 942.757L339.563 943.243ZM350.5 947.5V959H351.5V947.5H350.5ZM351.058 958.503C348.204 958.168 340.992 957.697 334.934 958.504L335.066 959.496C341.008 958.703 348.129 959.166 350.942 959.497L351.058 958.503ZM334.934 958.504C331.795 958.923 327.997 961.163 324.576 963.712C321.134 966.277 317.988 969.221 316.139 971.154L316.861 971.846C318.679 969.946 321.783 967.04 325.174 964.513C328.586 961.971 332.205 959.877 335.066 959.496L334.934 958.504ZM316 971.5V990H317V971.5H316ZM316.15 989.643L287.65 1017.64L288.35 1018.36L316.85 990.357L316.15 989.643ZM287.643 1017.65L258.643 1047.15L259.357 1047.85L288.357 1018.35L287.643 1017.65ZM258.874 1047.02C244.204 1050.85 214.075 1058.72 210.879 1059.51L211.121 1060.49C214.325 1059.68 244.462 1051.82 259.126 1047.98L258.874 1047.02ZM210.879 1059.51C210.581 1059.59 210.251 1059.78 209.919 1060.03C209.573 1060.28 209.176 1060.61 208.735 1061.02C207.853 1061.83 206.769 1062.96 205.538 1064.31C203.074 1067.03 199.995 1070.7 196.724 1074.74C190.181 1082.81 182.852 1092.36 178.1 1098.7L178.9 1099.3C183.648 1092.97 190.969 1083.42 197.501 1075.36C200.768 1071.33 203.833 1067.68 206.278 1064.99C207.501 1063.64 208.563 1062.54 209.414 1061.75C209.839 1061.36 210.204 1061.05 210.505 1060.84C210.819 1060.61 211.019 1060.51 211.121 1060.49L210.879 1059.51ZM178.433 1098.5L159.933 1101L160.067 1102L178.567 1099.5L178.433 1098.5ZM159.671 1101.12L155.671 1104.62L156.329 1105.38L160.329 1101.88L159.671 1101.12ZM156.032 1104.5C140.35 1103.5 108.242 1101.4 105.062 1101L104.938 1102C108.158 1102.4 140.317 1104.5 155.968 1105.5L156.032 1104.5ZM105.062 1101C104.522 1100.94 103.108 1100.91 101.091 1100.92C99.0555 1100.94 96.3647 1100.98 93.2381 1101.05C86.9846 1101.2 78.9814 1101.47 70.9785 1101.81C62.9763 1102.16 54.9706 1102.58 48.7132 1103.04C45.5853 1103.27 42.8889 1103.51 40.8463 1103.76C39.8256 1103.88 38.9618 1104.01 38.2863 1104.13C37.6298 1104.26 37.0965 1104.39 36.7764 1104.55L37.2236 1105.45C37.4035 1105.36 37.8077 1105.24 38.4715 1105.12C39.1163 1105 39.9557 1104.87 40.9662 1104.75C42.9861 1104.51 45.6647 1104.27 48.7868 1104.04C55.0294 1103.58 63.0237 1103.16 71.0215 1102.81C79.0186 1102.47 87.0154 1102.2 93.2619 1102.05C96.3853 1101.98 99.0695 1101.94 101.096 1101.92C103.142 1101.91 104.478 1101.94 104.938 1102L105.062 1101ZM36.7764 1104.55C36.5215 1104.68 36.2105 1104.91 35.865 1105.2C35.5118 1105.49 35.0953 1105.87 34.6245 1106.33C33.6826 1107.24 32.5068 1108.46 31.1583 1109.91C28.4606 1112.82 25.0561 1116.68 21.4214 1120.9C14.1512 1129.33 5.94838 1139.18 0.613463 1145.68L1.38654 1146.32C6.71828 1139.82 14.9155 1129.97 22.1786 1121.55C25.8106 1117.34 29.206 1113.49 31.8917 1110.59C33.2349 1109.14 34.3965 1107.94 35.3192 1107.05C35.7808 1106.6 36.1783 1106.24 36.5061 1105.97C36.8416 1105.68 37.0785 1105.52 37.2236 1105.45L36.7764 1104.55ZM0.5 1146V1157.5H1.5V1146H0.5ZM1.00036 1158L696 1157.5L696 1156.5L0.99964 1157L1.00036 1158ZM696.5 1157V341.5H695.5V1157H696.5ZM696 341H685V342H696V341ZM685.141 341.02L586.641 312.02L586.359 312.98L684.859 341.98L685.141 341.02ZM586.632 312.018L539.132 299.018L538.868 299.982L586.368 312.982L586.632 312.018ZM539.076 299.006L519.576 296.006L519.424 296.994L538.924 299.994L539.076 299.006ZM519.647 296.022L506.647 292.022L506.353 292.978L519.353 296.978L519.647 296.022ZM506.5 292H489V293H506.5V292ZM489.291 292.093L478.791 284.593L478.209 285.407L488.709 292.907L489.291 292.093ZM478.5 284.5H454.5V285.5H478.5V284.5ZM454.677 284.533L411.177 268.033L410.823 268.967L454.323 285.467L454.677 284.533ZM411.142 268.021L360.642 253.021L360.358 253.979L410.858 268.979L411.142 268.021ZM360.629 253.017L338.129 247.017L337.871 247.983L360.371 253.983L360.629 253.017ZM338.137 247.019L310.137 239.019L309.863 239.981L337.863 247.981L338.137 247.019ZM310.245 239.064L303.364 235.194L302.874 236.065L309.755 239.936L310.245 239.064ZM300.518 228.134L302.638 235.763L303.601 235.496L301.482 227.866L300.518 228.134ZM299.004 216.062L300.504 228.062L301.496 227.938L299.996 215.938L299.004 216.062ZM299 203V216H300V203H299ZM295.56 196.737L299.06 203.237L299.94 202.763L296.44 196.263L295.56 196.737ZM293.553 192.724L295.553 196.724L296.447 196.276L294.447 192.276L293.553 192.724ZM293.5 184V192.5H294.5V184H293.5ZM297.646 179.646L293.646 183.646L294.354 184.354L298.354 180.354L297.646 179.646ZM295.501 150.534L297.501 180.034L298.499 179.966L296.499 150.466L295.501 150.534ZM300.646 145.146L295.646 150.146L296.354 150.854L301.354 145.854L300.646 145.146ZM300.5 130V145.5H301.5V130H300.5ZM317 129.5H301V130.5H317V129.5ZM322.088 121.717L316.588 129.717L317.412 130.283L322.912 122.283L322.088 121.717ZM324.015 113.879L322.015 121.879L322.985 122.121L324.985 114.121L324.015 113.879ZM334.228 107.081L324.228 113.581L324.772 114.419L334.772 107.919L334.228 107.081ZM334 80V107.5H335V80H334ZM322.5 80.5H334.5V79.5H322.5V80.5ZM322 47.5V80H323V47.5H322ZM311.723 40.916L322.223 47.916L322.777 47.084L312.277 40.084L311.723 40.916ZM311.5 29.5V40.5H312.5V29.5H311.5ZM308.646 26.8536L311.646 29.8536L312.354 29.1464L309.354 26.1464L308.646 26.8536ZM283 27H309V26H283V27ZM282.5 10.5V26.5H283.5V10.5H282.5ZM277.604 4.30486L282.604 10.8049L283.396 10.1951L278.396 3.69514L277.604 4.30486ZM271.776 1.44721L277.776 4.44721L278.224 3.55279L272.224 0.552786L271.776 1.44721ZM264 1.5H272V0.5H264V1.5ZM260.3 4.4L264.3 1.4L263.7 0.6L259.7 3.6L260.3 4.4ZM253.854 10.8536L260.354 4.35355L259.646 3.64645L253.146 10.1464L253.854 10.8536ZM254 37.5V10.5H253V37.5H254ZM240 38H253.5V37H240V38ZM233.748 34.4319L239.748 37.9319L240.252 37.0681L234.252 33.5681L233.748 34.4319ZM228.183 29.887L233.683 34.387L234.317 33.613L228.817 29.113L228.183 29.887ZM228 23.5V29.5H229V23.5H228ZM230.593 19.7094L228.093 23.2094L228.907 23.7906L231.407 20.2906L230.593 19.7094ZM239.637 10.1561L230.637 19.6561L231.363 20.3439L240.363 10.8439L239.637 10.1561ZM241.584 7.22265L239.584 10.2226L240.416 10.7774L242.416 7.77735L241.584 7.22265ZM239.566 4.24807L241.566 7.74807L242.434 7.25193L240.434 3.75193L239.566 4.24807ZM235.5 4.5H240V3.5H235.5V4.5ZM211.338 26.8683L235.838 4.36826L235.162 3.63174L210.662 26.1317L211.338 26.8683ZM207.416 32.7774L211.416 26.7774L210.584 26.2226L206.584 32.2226L207.416 32.7774ZM207.5 37.5V32.5H206.5V37.5H207.5ZM220.798 47.0982L207.298 37.0982L206.702 37.9018L220.202 47.9018L220.798 47.0982ZM221 52V47.5H220V52H221ZM235.827 64.6222L220.827 51.6222L220.173 52.3778L235.173 65.3778L235.827 64.6222ZM236 114V65H235V114H236ZM233.964 119.186L235.964 114.186L235.036 113.814L233.036 118.814L233.964 119.186ZM234 138V119H233V138H234ZM235.947 141.776L233.947 137.776L233.053 138.224L235.053 142.224L235.947 141.776ZM236 189V142H235V189H236ZM244.5 188.5H235.5V189.5H244.5V188.5ZM245.999 203.466L244.999 188.966L244.001 189.034L245.001 203.534L245.999 203.466ZM246.992 208.911L245.992 203.411L245.008 203.589L246.008 209.089L246.992 208.911ZM248.489 215.895L246.989 208.895L246.011 209.105L247.511 216.105L248.489 215.895ZM250.962 221.808L248.462 215.808L247.538 216.192L250.038 222.192L250.962 221.808ZM287.611 234.952L286.498 223.452L285.502 223.548L286.615 235.048L287.611 234.952ZM286.493 223.418L283.493 205.418L282.507 205.582L285.507 223.582L286.493 223.418ZM283.447 205.276L278.947 196.276L278.053 196.724L282.553 205.724L283.447 205.276ZM278.974 196.342L275.974 187.342L275.026 187.658L278.026 196.658L278.974 196.342ZM275.985 187.379L274.485 181.379L273.515 181.621L275.015 187.621L275.985 187.379ZM274 181H269.5V182H274V181ZM269.223 181.084L263.223 185.084L263.777 185.916L269.777 181.916L269.223 181.084ZM263.188 185.11L260.688 187.11L261.312 187.89L263.812 185.89L263.188 185.11ZM260.5 187.5V196.5H261.5V187.5H260.5ZM260.529 196.668L263.029 203.668L263.971 203.332L261.471 196.332L260.529 196.668ZM263 203.5V234.571H264V203.5H263ZM265.137 234.519L263.637 234.091L263.363 235.052L264.863 235.481L265.137 234.519ZM287.113 234.5H265V235.5H287.113V234.5ZM282 37V29.5H281V37H282ZM292 36.5H281.5V37.5H292V36.5ZM294.686 37.5358L292.186 36.5358L291.814 37.4642L294.314 38.4642L294.686 37.5358ZM297.724 39.0528L294.724 37.5528L294.276 38.4472L297.276 39.9472L297.724 39.0528ZM307.5 39H297.5V40H307.5V39ZM307 30.5V39.5H308V30.5H307ZM296.5 31H307.5V30H296.5V31ZM293.342 29.9743L296.342 30.9743L296.658 30.0257L293.658 29.0257L293.342 29.9743ZM281.5 30H293.5V29H281.5V30Z" fill="black"/>
</svg>
